<svg width="102" height="103" viewBox="0 0 102 103" fill="none" xmlns="http://www.w3.org/2000/svg">
<g clip-path="url(#clip0_59_952)">
<path d="M63.7912 95.3056H18.2303V26.7631H28.9V37.1243C28.9 38.2353 29.7919 39.136 30.8922 39.136C31.9923 39.136 32.8844 38.2353 32.8844 37.1243V26.7631H60.2063V37.1243C60.2063 38.2353 61.0984 39.136 62.1984 39.136C63.2985 39.136 64.1906 38.2353 64.1906 37.1243V26.7631H74.5273V48.0779H78.5117V24.7514C78.5117 23.6403 77.6196 22.7397 76.5195 22.7397H64.1906V17.7287C64.1906 7.95313 56.2751 0 46.5454 0C44.3154 0 42.1805 0.417834 40.2145 1.17967C38.2484 0.417834 36.1135 0 33.8835 0C24.1536 0 16.2381 7.95313 16.2381 17.7287V22.7395H3.90923C2.80914 22.7395 1.91704 23.6401 1.91704 24.7512V89.7613C1.91704 95.0368 6.17415 99.3288 11.4068 99.3288H69.8044C67.8365 98.2564 65.7517 96.925 63.7912 95.3056ZM46.5454 4.02344C54.0781 4.02344 60.2063 10.1717 60.2063 17.7287V22.7395H51.5287V17.7287C51.5287 12.2528 49.045 7.34901 45.1501 4.09425C45.6089 4.04758 46.0745 4.02344 46.5454 4.02344ZM40.2145 5.58614C44.5682 7.8801 47.5445 12.4624 47.5445 17.7289V22.7397H32.8844V17.7287C32.8844 12.4622 35.8607 7.8801 40.2145 5.58614ZM20.2225 17.7287C20.2225 10.1717 26.3508 4.02344 33.8835 4.02344C34.3544 4.02344 34.8198 4.04738 35.2786 4.09445C31.3837 7.34901 28.8998 12.253 28.8998 17.7289V22.7397H20.2223V17.7287H20.2225ZM14.2459 95.3056H11.4068C8.37113 95.3056 5.90142 92.8185 5.90142 89.7615V26.7631H14.2459V95.3056Z" fill="black"/>
<path d="M93.7992 54.7375C87.7766 54.7375 82.5819 51.191 80.165 46.0659H73.082C70.6651 51.1908 65.4705 54.7375 59.4479 54.7375C57.2051 54.7375 55.0772 54.2452 53.1641 53.3635V78.4196C53.1641 96.7462 76.6235 103 76.6235 103C76.6235 103 100.083 96.7462 100.083 78.4196V53.3635C98.1698 54.2452 96.0418 54.7375 93.7992 54.7375Z" fill="#0336DB"/>
<path d="M75.8531 81.6054C75.328 81.6054 74.8228 81.3957 74.4487 81.0201L70.1192 76.673C69.3389 75.8895 69.3353 74.6158 70.1113 73.828C70.8868 73.0401 72.1483 73.0364 72.9286 73.82L75.7249 76.6276L82.99 67.9301C83.6996 67.0807 84.9563 66.9733 85.7972 67.6895C86.6383 68.4059 86.745 69.6751 86.0354 70.5244L77.3762 80.891C77.0172 81.3207 76.4968 81.579 75.9406 81.6035C75.9113 81.6047 75.8824 81.6054 75.8531 81.6054Z" fill="white"/>
</g>
<defs>
<clipPath id="clip0_59_952">
<rect width="102" height="103" fill="white"/>
</clipPath>
</defs>
</svg>
