<svg width="86" height="104" viewBox="0 0 86 104" fill="none" xmlns="http://www.w3.org/2000/svg">
<path d="M62.8503 69.9238C62.1676 69.9238 61.492 69.8935 60.8245 69.8346V83.7216H4.66959V17.1732H60.8245V28.4152C61.492 28.3563 62.1676 28.326 62.8503 28.326C63.5329 28.326 64.2085 28.3563 64.876 28.4152V9.77092C64.876 4.38323 60.4883 0 55.095 0H10.3991C5.00586 0 0.618164 4.38323 0.618164 9.77092V94.2108C0.618164 99.6086 4.99755 104 10.3807 104H55.1135C60.4966 104 64.876 99.6086 64.876 94.2108V69.8346C64.2087 69.8937 63.5329 69.9238 62.8503 69.9238ZM4.66959 9.77092C4.66959 6.62309 7.23981 4.0625 10.3991 4.0625H55.095C58.2543 4.0625 60.8245 6.62309 60.8245 9.77092V13.1107H4.66959V9.77092ZM60.8245 94.2108C60.8245 97.3686 58.2626 99.9375 55.1135 99.9375H10.3807C7.23171 99.9375 4.66959 97.3686 4.66959 94.2108V87.7841H60.8245V94.2108Z" fill="black"/>
<path d="M31.3966 95.8921H34.0975C35.2163 95.8921 36.1232 94.9825 36.1232 93.8608C36.1232 92.739 35.2163 91.8296 34.0975 91.8296H31.3966C30.2778 91.8296 29.3709 92.739 29.3709 93.8608C29.3709 94.9825 30.2778 95.8921 31.3966 95.8921Z" fill="black"/>
<path d="M62.8502 26.2947C50.2758 26.2947 40.0824 36.5162 40.0824 49.125C40.0824 54.1306 41.689 58.7596 44.4132 62.5225L40.0824 71.2623L52.6667 69.5496C55.731 71.0887 59.1897 71.955 62.8502 71.955C75.4246 71.955 85.6182 61.7335 85.6182 49.125C85.6182 36.5164 75.4246 26.2947 62.8502 26.2947Z" fill="#0336DB"/>
<path d="M65.0226 55.0342H64.8759V47.5356H65.0226C66.1414 47.5356 67.0483 46.6261 67.0483 45.5044C67.0483 44.3827 66.1414 43.4731 65.0226 43.4731H60.6781C59.5593 43.4731 58.6523 44.3827 58.6523 45.5044C58.6523 46.6261 59.5593 47.5356 60.6781 47.5356H60.8247V55.0342H60.6781C59.5593 55.0342 58.6523 55.9438 58.6523 57.0655C58.6523 58.1871 59.5593 59.0967 60.6781 59.0967H65.0226C66.1414 59.0967 67.0483 58.1871 67.0483 57.0655C67.0483 55.9438 66.1414 55.0342 65.0226 55.0342Z" fill="white"/>
</svg>
