<svg width="104" height="86" viewBox="0 0 104 86" fill="none" xmlns="http://www.w3.org/2000/svg">
<path d="M45.8327 53.512V34.6035C45.8327 33.4816 44.9233 32.5722 43.8015 32.5722H38.1581V31.5101C38.1581 27.7803 35.1077 24.7456 31.3585 24.7456C27.6092 24.7456 24.559 27.7801 24.559 31.5101V32.5722H18.95C17.8281 32.5722 16.9187 33.4816 16.9187 34.6035V53.512C16.9187 57.0242 19.7761 59.8816 23.2883 59.8816H39.4633C42.9754 59.8816 45.8327 57.0242 45.8327 53.512ZM28.6217 31.5103C28.6217 30.0204 29.8496 28.8083 31.3587 28.8083C32.8679 28.8083 34.0958 30.0204 34.0958 31.5103V32.5724H28.6217V31.5103ZM20.9812 53.512V36.6347H24.5592V38.67C24.5592 39.7917 25.4686 40.7013 26.5905 40.7013C27.7124 40.7013 28.6217 39.7917 28.6217 38.67V36.6347H34.0958V38.67C34.0958 39.7917 35.0052 40.7013 36.127 40.7013C37.2489 40.7013 38.1583 39.7917 38.1583 38.67V36.6347H41.7704V53.512C41.7704 54.7841 40.7355 55.8191 39.4635 55.8191H23.2883C22.0161 55.8191 20.9812 54.7841 20.9812 53.512Z" fill="black"/>
<path d="M101.969 66.9619H100.063V8.39056C100.063 3.82675 96.3499 0.113831 91.7861 0.113831H12.2139C7.65009 0.113831 3.93717 3.82675 3.93717 8.39056V66.9619H2.03125C0.909391 66.9619 0 67.8715 0 68.9931V76.5912C0 81.7165 4.16955 85.8862 9.2948 85.8862H94.705C99.8302 85.8862 104 81.7167 104 76.5912V68.9931C104 67.8713 103.091 66.9619 101.969 66.9619ZM12.2139 4.17633H91.7861C94.1098 4.17633 96.0003 6.06681 96.0003 8.39056V14.0448H7.99967V8.39056C7.99967 6.06681 9.89016 4.17633 12.2139 4.17633ZM7.99967 18.1073H96.0003V66.9619H66.7028C65.5809 66.9619 64.6715 67.8715 64.6715 68.9931C64.6715 70.2905 63.6161 71.3459 62.3187 71.3459H41.6812C40.3839 71.3459 39.3285 70.2905 39.3285 68.9931C39.3285 67.8715 38.4191 66.9619 37.2972 66.9619H7.99967V18.1073ZM99.9375 76.5912C99.9375 79.4764 97.5902 81.8237 94.7052 81.8237H9.2948C6.40961 81.8237 4.0625 79.4764 4.0625 76.5912V71.0244H35.5954C36.4471 73.5691 38.8533 75.4084 41.681 75.4084H62.3187C65.1465 75.4084 67.5529 73.5691 68.4044 71.0244H99.9375V76.5912Z" fill="black"/>
<path d="M50.859 10.902H53.1409C54.2628 10.902 55.1722 9.99244 55.1722 8.87079C55.1722 7.74913 54.2628 6.83954 53.1409 6.83954H50.859C49.7372 6.83954 48.8278 7.74913 48.8278 8.87079C48.8278 9.99244 49.7372 10.902 50.859 10.902Z" fill="black"/>
<path d="M55.3624 46.2268H87.9032V56.4397H55.3624V46.2268Z" fill="#0336DB"/>
<path d="M55.3624 28.4568H87.9032V38.6698H55.3624V28.4568Z" fill="#0336DB"/>
</svg>
