<svg width="24" height="25" viewBox="0 0 24 25" fill="none" xmlns="http://www.w3.org/2000/svg">
<path d="M17.3766 0H6.62295C2.97106 0 0 3.095 0 6.89906V18.1008C0 21.905 2.97106 24.9999 6.62295 24.9999H17.3766C21.0288 24.9999 23.9999 21.9049 23.9999 18.1008V6.89906C24 3.095 21.0288 0 17.3766 0ZM21.8706 18.1008C21.8706 20.6819 19.8547 22.7817 17.3768 22.7817H6.62295C4.1452 22.7819 2.12938 20.6819 2.12938 18.1008V6.89906C2.12938 4.31806 4.1452 2.21811 6.62295 2.21811H17.3766C19.8545 2.21811 21.8705 4.31806 21.8705 6.89906V18.1008H21.8706Z" fill="white"/>
<path d="M11.9999 6.05847C8.58992 6.05847 5.81576 8.94822 5.81576 12.5003C5.81576 16.0522 8.58992 18.9418 11.9999 18.9418C15.4099 18.9418 18.1841 16.0522 18.1841 12.5003C18.1841 8.94822 15.4099 6.05847 11.9999 6.05847ZM11.9999 16.7236C9.7642 16.7236 7.94514 14.829 7.94514 12.5002C7.94514 10.1711 9.76406 8.27643 11.9999 8.27643C14.2358 8.27643 16.0547 10.1711 16.0547 12.5002C16.0547 14.829 14.2356 16.7236 11.9999 16.7236Z" fill="white"/>
<path d="M18.4435 4.17761C18.0333 4.17761 17.6303 4.35062 17.3405 4.65377C17.0494 4.95543 16.882 5.37539 16.882 5.80422C16.882 6.23173 17.0495 6.65154 17.3405 6.95468C17.6301 7.25635 18.0333 7.43084 18.4435 7.43084C18.8552 7.43084 19.2569 7.25635 19.548 6.95468C19.839 6.65154 20.0051 6.23158 20.0051 5.80422C20.0051 5.37539 19.839 4.95543 19.548 4.65377C19.2584 4.35062 18.8552 4.17761 18.4435 4.17761Z" fill="white"/>
</svg>
