<svg width="102" height="103" viewBox="0 0 102 103" fill="none" xmlns="http://www.w3.org/2000/svg">
<path d="M71.4307 52.972C81.8615 52.972 90.3174 44.4332 90.3174 33.9001C90.3174 23.367 81.8615 14.8282 71.4307 14.8282C60.9998 14.8282 52.5439 23.367 52.5439 33.9001C52.5439 44.4332 60.9998 52.972 71.4307 52.972Z" fill="#0336DB"/>
<path d="M71.4307 63.8353C87.7768 63.8353 101.075 50.4065 101.075 33.9003C101.075 17.3939 87.7768 3.96512 71.4307 3.96512C55.0846 3.96512 41.7861 17.3939 41.7861 33.9003C41.7861 50.4065 55.0846 63.8353 71.4307 63.8353ZM71.4307 7.98856C85.5796 7.98856 97.0909 19.6125 97.0909 33.9003C97.0909 48.1879 85.5798 59.8118 71.4307 59.8118C57.2818 59.8118 45.7705 48.1879 45.7705 33.9003C45.7705 19.6125 57.2816 7.98856 71.4307 7.98856Z" fill="black"/>
<path d="M68.085 38.9238C67.3947 38.0586 66.1408 37.9224 65.2837 38.6193C64.4269 39.3163 64.292 40.5827 64.9821 41.4479C66.0804 42.8246 67.6548 43.6067 69.2231 43.9815C69.3066 45.0149 70.1636 45.8272 71.2085 45.8272C72.204 45.8272 73.029 45.09 73.177 44.1265C75.9828 43.6208 77.9517 41.7344 78.2746 39.1662C78.6499 36.1831 76.7336 33.3222 73.6147 32.2089C73.4726 32.1582 73.3348 32.1087 73.2007 32.0602V28.1845C73.3666 28.2913 73.4904 28.408 73.5689 28.5206C74.2004 29.4301 75.4429 29.6504 76.344 29.0119C77.2446 28.3738 77.4624 27.1191 76.8303 26.2096C76.1057 25.1665 74.8403 24.2815 73.1995 23.917C73.164 22.8373 72.2863 21.9731 71.2085 21.9731C70.1082 21.9731 69.2163 22.8737 69.2163 23.9848V24.0522C69.094 24.0846 68.9709 24.1194 68.847 24.1572C66.7556 24.7935 65.1774 26.8388 65.009 29.1314C64.8417 31.4097 66.0358 33.3858 68.2031 34.4178C68.4394 34.5304 68.7846 34.6777 69.2161 34.8513V39.7555C68.7593 39.5479 68.3625 39.2717 68.085 38.9238ZM74.3219 38.6593C74.2478 39.2485 73.8527 39.6985 73.2007 39.9653V36.4707C74.0759 37.0916 74.4086 37.9713 74.3219 38.6593ZM68.9828 29.4289C69.0018 29.1694 69.087 28.9123 69.2165 28.6878V30.261C69.0362 30.025 68.9591 29.749 68.9828 29.4289Z" fill="white"/>
<path d="M101.992 72.3911C101.887 69.9491 100.766 67.8492 98.8342 66.4786C95.6513 64.2197 91.3553 64.612 88.6187 67.4111C88.531 67.5008 88.4517 67.5986 88.3822 67.7034L84.0117 74.2787C82.7881 71.3623 79.9453 69.3136 76.6424 69.3136L45.1993 69.2922H45.198C44.721 69.2922 44.2602 69.4648 43.8988 69.7789L36.0217 76.6221H30.2733V74.854C30.2733 73.743 29.3812 72.8423 28.2811 72.8423H19.5095V72.5671C19.5095 71.456 18.6174 70.5554 17.5173 70.5554H1.99219C0.891902 70.5554 0 71.456 0 72.5671V96.1601C0 97.2712 0.891902 98.1719 1.99219 98.1719H17.5173C18.6174 98.1719 19.5095 97.2712 19.5095 96.1601V95.8849H28.2809C29.381 95.8849 30.2731 94.9843 30.2731 93.8732V92.0156H36.8786L42.846 98.4034C43.2227 98.8066 43.747 99.0347 44.2951 99.0347C44.3045 99.0347 44.3138 99.0347 44.3232 99.0345L85.4646 98.4517C86.1065 98.4426 86.7048 98.1218 87.0715 97.5899L100.143 78.6347C100.152 78.6228 100.16 78.6107 100.168 78.5988C101.433 76.6766 102.081 74.472 101.992 72.3911ZM15.5251 94.1484H3.98438V74.5788H15.5251V94.1484ZM26.2887 91.8617H19.5095V76.8657H26.2887V91.8617ZM96.8612 76.3538L84.3863 94.4433L45.1434 94.9992L39.1875 88.6236C38.811 88.2207 38.2869 87.9924 37.7384 87.9924H30.2733V80.6456H36.7608C37.2378 80.6456 37.6986 80.473 38.0599 80.1589L45.9365 73.3163L76.6411 73.3372C78.8617 73.3372 80.6685 75.1952 80.6685 77.4791C80.6685 79.7628 78.8619 81.6206 76.6411 81.6206C76.6359 81.6206 76.6307 81.6208 76.6255 81.6208H59.4449C58.8982 81.6208 58.3755 81.8478 57.9992 82.2485L53.808 86.7125C53.051 87.5188 53.0846 88.792 53.8831 89.5565C54.2684 89.9252 54.7612 90.1083 55.2533 90.1083C55.7811 90.1083 56.3078 89.8979 56.6995 89.4806L60.3013 85.6443L80.1927 85.6451H80.1933C80.8571 85.6451 81.4775 85.3111 81.8474 84.7545L91.5757 70.119C92.9429 68.8324 95.0052 68.6787 96.5432 69.7706C98.6193 71.2438 98.275 74.1936 96.8612 76.3538Z" fill="black"/>
</svg>
