<svg width="103" height="103" viewBox="0 0 103 103" fill="none" xmlns="http://www.w3.org/2000/svg">
<g clip-path="url(#clip0_59_964)">
<path d="M73.2652 54.4426H96.068V75.7642H73.2652V54.4426Z" fill="#0336DB"/>
<path d="M6.93198 54.4426H29.7348V75.7642H6.93198V54.4426Z" fill="#0336DB"/>
<path d="M40.8369 54.4426H62.1631V89.3342H40.8369V54.4426Z" fill="#0336DB"/>
<path d="M95.3669 10.9888H7.63306C3.42415 10.9888 0 14.4131 0 18.6219V33.3092C0 37.012 1.97169 40.2627 4.92026 42.067V89.9995C4.92026 91.1105 5.82091 92.0112 6.93198 92.0112H96.068C97.1791 92.0112 98.0797 91.1105 98.0797 89.9995V42.067C101.028 40.2627 103 37.012 103 33.3092V18.6219C103 14.4131 99.5757 10.9888 95.3669 10.9888ZM82.4805 33.3092C82.4805 36.7479 79.683 39.5453 76.2441 39.5453C72.8053 39.5453 70.0078 36.7479 70.0078 33.3092V15.0122H82.4805V33.3092ZM65.9844 33.3092C65.9844 36.7479 63.1869 39.5453 59.748 39.5453C56.3092 39.5453 53.5117 36.7479 53.5117 33.3092V15.0122H65.9844V33.3092ZM49.4883 33.3092C49.4883 36.7479 46.6908 39.5453 43.252 39.5453C39.8131 39.5453 37.0156 36.7479 37.0156 33.3092V15.0122H49.4883V33.3092ZM32.9922 33.3092C32.9922 36.7479 30.1947 39.5453 26.7559 39.5453C23.317 39.5453 20.5195 36.7479 20.5195 33.3092V15.0122H32.9922V33.3092ZM4.02344 18.6219C4.02344 16.6315 5.64287 15.0122 7.63306 15.0122H16.4961V33.3092C16.4961 36.7479 13.6986 39.5453 10.2598 39.5453C6.82093 39.5453 4.02344 36.7479 4.02344 33.3092V18.6219ZM94.0563 87.9877H8.9437V43.4849C9.37461 43.5402 9.81397 43.569 10.2598 43.569C13.6362 43.569 16.6371 41.9294 18.5078 39.4047C20.3785 41.9294 23.3794 43.569 26.7559 43.569C30.1323 43.569 33.1332 41.9294 35.0039 39.4047C36.8746 41.9294 39.8755 43.569 43.252 43.569C46.6284 43.569 49.6293 41.9294 51.5 39.4047C53.3707 41.9294 56.3716 43.569 59.748 43.569C63.1245 43.569 66.1254 41.9294 67.9961 39.4047C69.8668 41.9294 72.8677 43.569 76.2441 43.569C79.6206 43.569 82.6215 41.9294 84.4922 39.4047C86.3629 41.9294 89.3638 43.569 92.7402 43.569C93.186 43.569 93.6254 43.5404 94.0563 43.4849V87.9877ZM98.9766 33.3092C98.9766 36.7479 96.1791 39.5453 92.7402 39.5453C89.3014 39.5453 86.5039 36.7479 86.5039 33.3092V15.0122H95.3669C97.3573 15.0122 98.9766 16.6315 98.9766 18.6219V33.3092Z" fill="black"/>
</g>
<defs>
<clipPath id="clip0_59_964">
<rect width="103" height="103" fill="white"/>
</clipPath>
</defs>
</svg>
